{
 "cells": [
  {
   "cell_type": "code",
   "execution_count": null,
   "metadata": {},
   "outputs": [
    {
     "name": "stderr",
     "output_type": "stream",
     "text": [
      "ffmpeg version 5.1.2-3ubuntu1 Copyright (c) 2000-2022 the FFmpeg developers\n",
      "  built with gcc 12 (Ubuntu 12.2.0-14ubuntu2)\n",
      "  configuration: --prefix=/usr --extra-version=3ubuntu1 --toolchain=hardened --libdir=/usr/lib/x86_64-linux-gnu --incdir=/usr/include/x86_64-linux-gnu --arch=amd64 --enable-gpl --disable-stripping --enable-gnutls --enable-ladspa --enable-libaom --enable-libass --enable-libbluray --enable-libbs2b --enable-libcaca --enable-libcdio --enable-libcodec2 --enable-libdav1d --enable-libflite --enable-libfontconfig --enable-libfreetype --enable-libfribidi --enable-libglslang --enable-libgme --enable-libgsm --enable-libjack --enable-libmp3lame --enable-libmysofa --enable-libopenjpeg --enable-libopenmpt --enable-libopus --enable-libpulse --enable-librabbitmq --enable-librist --enable-librubberband --enable-libshine --enable-libsnappy --enable-libsoxr --enable-libspeex --enable-libsrt --enable-libssh --enable-libsvtav1 --enable-libtheora --enable-libtwolame --enable-libvidstab --enable-libvorbis --enable-libvpx --enable-libwebp --enable-libx265 --enable-libxml2 --enable-libxvid --enable-libzimg --enable-libzmq --enable-libzvbi --enable-lv2 --enable-omx --enable-openal --enable-opencl --enable-opengl --enable-sdl2 --disable-sndio --enable-libjxl --enable-pocketsphinx --enable-librsvg --enable-libmfx --enable-libdc1394 --enable-libdrm --enable-libiec61883 --enable-chromaprint --enable-frei0r --enable-libx264 --enable-libplacebo --enable-librav1e --enable-shared\n",
      "  libavutil      57. 28.100 / 57. 28.100\n",
      "  libavcodec     59. 37.100 / 59. 37.100\n",
      "  libavformat    59. 27.100 / 59. 27.100\n",
      "  libavdevice    59.  7.100 / 59.  7.100\n",
      "  libavfilter     8. 44.100 /  8. 44.100\n",
      "  libswscale      6.  7.100 /  6.  7.100\n",
      "  libswresample   4.  7.100 /  4.  7.100\n",
      "  libpostproc    56.  6.100 / 56.  6.100\n",
      "Input #0, mov,mp4,m4a,3gp,3g2,mj2, from '/home/pigs/SlowFast_models/test_data_prep/test_video/PIGS021219a_000545.mp4':\n",
      "  Metadata:\n",
      "    major_brand     : isom\n",
      "    minor_version   : 512\n",
      "    compatible_brands: isomiso2avc1mp41\n",
      "    encoder         : Lavf57.83.100\n",
      "  Duration: 00:01:00.00, start: 0.000000, bitrate: 34156 kb/s\n",
      "  Stream #0:0[0x1](und): Video: h264 (High) (avc1 / 0x31637661), yuvj420p(pc, progressive), 1280x720 [SAR 1:1 DAR 16:9], 34152 kb/s, 30 fps, 30 tbr, 15360 tbn (default)\n",
      "    Metadata:\n",
      "      handler_name    : VideoHandler\n",
      "      vendor_id       : [0][0][0][0]\n",
      "Stream mapping:\n",
      "  Stream #0:0 -> #0:0 (h264 (native) -> mjpeg (native))\n",
      "Press [q] to stop, [?] for help\n",
      "Output #0, image2, to '/home/pigs/SlowFast_models/test_data_prep/cut_video_II/PIGS021219a_000545/PIGS021219a_000545_%06d.jpg':\n",
      "  Metadata:\n",
      "    major_brand     : isom\n",
      "    minor_version   : 512\n",
      "    compatible_brands: isomiso2avc1mp41\n",
      "    encoder         : Lavf59.27.100\n",
      "  Stream #0:0(und): Video: mjpeg, yuvj420p(pc, progressive), 1280x720 [SAR 1:1 DAR 16:9], q=2-31, 200 kb/s, 30 fps, 30 tbn (default)\n",
      "    Metadata:\n",
      "      handler_name    : VideoHandler\n",
      "      vendor_id       : [0][0][0][0]\n",
      "      encoder         : Lavc59.37.100 mjpeg\n",
      "    Side data:\n",
      "      cpb: bitrate max/min/avg: 0/0/200000 buffer size: 0 vbv_delay: N/A\n",
      "frame= 1800 fps=1224 q=1.0 Lsize=N/A time=00:01:00.00 bitrate=N/A speed=40.8x    \n",
      "video:360323kB audio:0kB subtitle:0kB other streams:0kB global headers:0kB muxing overhead: unknown\n",
      "ffmpeg version 5.1.2-3ubuntu1 Copyright (c) 2000-2022 the FFmpeg developers\n",
      "  built with gcc 12 (Ubuntu 12.2.0-14ubuntu2)\n",
      "  configuration: --prefix=/usr --extra-version=3ubuntu1 --toolchain=hardened --libdir=/usr/lib/x86_64-linux-gnu --incdir=/usr/include/x86_64-linux-gnu --arch=amd64 --enable-gpl --disable-stripping --enable-gnutls --enable-ladspa --enable-libaom --enable-libass --enable-libbluray --enable-libbs2b --enable-libcaca --enable-libcdio --enable-libcodec2 --enable-libdav1d --enable-libflite --enable-libfontconfig --enable-libfreetype --enable-libfribidi --enable-libglslang --enable-libgme --enable-libgsm --enable-libjack --enable-libmp3lame --enable-libmysofa --enable-libopenjpeg --enable-libopenmpt --enable-libopus --enable-libpulse --enable-librabbitmq --enable-librist --enable-librubberband --enable-libshine --enable-libsnappy --enable-libsoxr --enable-libspeex --enable-libsrt --enable-libssh --enable-libsvtav1 --enable-libtheora --enable-libtwolame --enable-libvidstab --enable-libvorbis --enable-libvpx --enable-libwebp --enable-libx265 --enable-libxml2 --enable-libxvid --enable-libzimg --enable-libzmq --enable-libzvbi --enable-lv2 --enable-omx --enable-openal --enable-opencl --enable-opengl --enable-sdl2 --disable-sndio --enable-libjxl --enable-pocketsphinx --enable-librsvg --enable-libmfx --enable-libdc1394 --enable-libdrm --enable-libiec61883 --enable-chromaprint --enable-frei0r --enable-libx264 --enable-libplacebo --enable-librav1e --enable-shared\n",
      "  libavutil      57. 28.100 / 57. 28.100\n",
      "  libavcodec     59. 37.100 / 59. 37.100\n",
      "  libavformat    59. 27.100 / 59. 27.100\n",
      "  libavdevice    59.  7.100 / 59.  7.100\n",
      "  libavfilter     8. 44.100 /  8. 44.100\n",
      "  libswscale      6.  7.100 /  6.  7.100\n",
      "  libswresample   4.  7.100 /  4.  7.100\n",
      "  libpostproc    56.  6.100 / 56.  6.100\n",
      "Input #0, mov,mp4,m4a,3gp,3g2,mj2, from '/home/pigs/SlowFast_models/test_data_prep/test_video/2019-11-11--11:34:50_000000.mp4':\n",
      "  Metadata:\n",
      "    major_brand     : isom\n",
      "    minor_version   : 512\n",
      "    compatible_brands: isomiso2avc1mp41\n",
      "    encoder         : Lavf57.83.100\n",
      "  Duration: 00:01:00.00, start: 0.000000, bitrate: 30333 kb/s\n",
      "  Stream #0:0[0x1](und): Video: h264 (High) (avc1 / 0x31637661), yuvj420p(pc, progressive), 1280x720 [SAR 1:1 DAR 16:9], 30330 kb/s, 30 fps, 30 tbr, 15360 tbn (default)\n",
      "    Metadata:\n",
      "      handler_name    : VideoHandler\n",
      "      vendor_id       : [0][0][0][0]\n",
      "Stream mapping:\n",
      "  Stream #0:0 -> #0:0 (h264 (native) -> mjpeg (native))\n",
      "Press [q] to stop, [?] for help\n",
      "Output #0, image2, to '/home/pigs/SlowFast_models/test_data_prep/cut_video_II/2019-11-11--11:34:50_000000/2019-11-11--11:34:50_000000_%06d.jpg':\n",
      "  Metadata:\n",
      "    major_brand     : isom\n",
      "    minor_version   : 512\n",
      "    compatible_brands: isomiso2avc1mp41\n",
      "    encoder         : Lavf59.27.100\n",
      "  Stream #0:0(und): Video: mjpeg, yuvj420p(pc, progressive), 1280x720 [SAR 1:1 DAR 16:9], q=2-31, 200 kb/s, 30 fps, 30 tbn (default)\n",
      "    Metadata:\n",
      "      handler_name    : VideoHandler\n",
      "      vendor_id       : [0][0][0][0]\n",
      "      encoder         : Lavc59.37.100 mjpeg\n",
      "    Side data:\n",
      "      cpb: bitrate max/min/avg: 0/0/200000 buffer size: 0 vbv_delay: N/A\n",
      "frame= 1800 fps=717 q=1.0 Lsize=N/A time=00:01:00.00 bitrate=N/A speed=23.9x    \n",
      "video:318709kB audio:0kB subtitle:0kB other streams:0kB global headers:0kB muxing overhead: unknown\n"
     ]
    }
   ],
   "source": [
    "import os\n",
    "import subprocess\n",
    "\n",
    "# Input and output directories\n",
    "IN_DATA_DIR = \"./test_video\"\n",
    "OUT_DATA_DIR = \"./cut_video_II\"\n",
    "\n",
    "# Create output directory if it doesn't exist\n",
    "if not os.path.exists(OUT_DATA_DIR):\n",
    "    print(f\"{OUT_DATA_DIR} doesn't exist. Creating it.\")\n",
    "    os.makedirs(OUT_DATA_DIR)\n",
    "\n",
    "# Loop through each video in the input directory\n",
    "for video in os.listdir(IN_DATA_DIR):\n",
    "    video_path = os.path.join(IN_DATA_DIR, video)\n",
    "    \n",
    "    # Skip if it's not a file\n",
    "    if not os.path.isfile(video_path):\n",
    "        continue\n",
    "\n",
    "    # Extract video name without extension\n",
    "    if video.endswith(\".webm\"):\n",
    "        video_name = video[:-5]\n",
    "    else:\n",
    "        video_name = video[:-4]\n",
    "\n",
    "    # Create output directory for each video\n",
    "    out_video_dir = os.path.join(OUT_DATA_DIR, video_name)\n",
    "    os.makedirs(out_video_dir, exist_ok=True)\n",
    "\n",
    "    # Output file pattern\n",
    "    out_name = os.path.join(out_video_dir, f\"{video_name}_%06d.jpg\")\n",
    "\n",
    "    # Run ffmpeg command to extract frames at 30 fps\n",
    "    subprocess.run([\"ffmpeg\", \"-i\", video_path, \"-r\", \"30\", \"-q:v\", \"1\", out_name])"
   ]
  },
  {
   "cell_type": "code",
   "execution_count": 9,
   "metadata": {},
   "outputs": [
    {
     "name": "stdout",
     "output_type": "stream",
     "text": [
      "1800\n"
     ]
    }
   ],
   "source": [
    "# num of extracted frames\n",
    "num_frames=len(os.listdir(os.path.join(OUT_DATA_DIR,os.listdir(OUT_DATA_DIR)[0])))\n",
    "print(num_frames)"
   ]
  },
  {
   "cell_type": "code",
   "execution_count": 10,
   "metadata": {},
   "outputs": [
    {
     "name": "stdout",
     "output_type": "stream",
     "text": [
      "60.0\n"
     ]
    }
   ],
   "source": [
    "# num of seconds\n",
    "print(num_frames/30)"
   ]
  },
  {
   "cell_type": "code",
   "execution_count": null,
   "metadata": {},
   "outputs": [],
   "source": []
  }
 ],
 "metadata": {
  "kernelspec": {
   "display_name": "env_SlowFast",
   "language": "python",
   "name": "python3"
  },
  "language_info": {
   "codemirror_mode": {
    "name": "ipython",
    "version": 3
   },
   "file_extension": ".py",
   "mimetype": "text/x-python",
   "name": "python",
   "nbconvert_exporter": "python",
   "pygments_lexer": "ipython3",
   "version": "3.11.4"
  }
 },
 "nbformat": 4,
 "nbformat_minor": 2
}
